<?xml version="1.0" standalone="no"?><!DOCTYPE svg PUBLIC "-//W3C//DTD SVG 1.1//EN" "http://www.w3.org/Graphics/SVG/1.1/DTD/svg11.dtd"><svg t="1675393303238" class="icon" viewBox="0 0 1024 1024" version="1.1" xmlns="http://www.w3.org/2000/svg" p-id="6050" xmlns:xlink="http://www.w3.org/1999/xlink" width="200" height="200"><path d="M922.36 575.04c-12.7 180.63-151.18 56.81-331.84 44.11-180.67-12.7-335.1 90.46-322.36-90.17 12.72-180.65 169.48-316.79 350.13-304.07 180.66 12.71 316.79 169.47 304.07 350.13z" fill="#F7B76B" p-id="6051"></path><path d="M933.69 550.25c-13.06 185.91-155.59 58.51-341.47 45.41-185.88-13.1-344.83 93.1-331.73-92.81 11.23-186.03 171.14-327.73 357.17-316.5s327.73 171.14 316.5 357.17c-0.13 2.24-0.29 4.49-0.47 6.73z" fill="#FCC275" p-id="6052"></path><path d="M857.26 650.92c-28.71 0-64.35-10.14-105.51-21.85-47.45-13.5-101.23-28.8-159.57-32.91-58.35-4.11-113.75 3.5-162.63 10.22-66.46 9.13-118.96 16.35-147.43-10.3-18.12-16.96-25.36-47.46-22.13-93.26 5.44-90.1 45.64-172.7 113.2-232.56 67.56-59.87 154.39-89.84 244.5-84.4 90.11 5.44 172.7 45.64 232.57 113.2 59.87 67.56 89.84 154.39 84.41 244.5-0.14 2.24-0.29 4.51-0.48 6.74-3.22 45.79-14.66 74.99-34.98 89.24-11.57 8.11-25.64 11.38-41.95 11.38zM558.24 594c11.21 0 22.55 0.36 34.02 1.16 58.44 4.12 112.28 19.43 159.77 32.95 64.28 18.29 115.06 32.73 146.61 10.6 20.05-14.07 31.36-43.02 34.55-88.5 0.18-2.23 0.34-4.49 0.47-6.72 11.2-185.46-130.58-345.45-316.04-356.64-89.83-5.41-176.41 24.46-243.77 84.15-67.36 59.69-107.44 142.04-112.87 231.88-3.2 45.48 3.93 75.73 21.82 92.47 28.13 26.33 80.42 19.14 146.62 10.04 39.33-5.4 82.89-11.39 128.82-11.39z" fill="#F7B76B" p-id="6053"></path><path d="M873.23 524.6c-10.86 151.68-126.93 47.73-278.62 37.05-151.68-10.67-281.33 75.99-270.66-75.7 11.86-151.59 144.37-264.87 295.97-253C769.83 244.68 882.6 374.52 873.23 524.6z" fill="#FCC683" p-id="6054"></path><path d="M455.99 364.63s-55.04 36.73-38.03 75.12c17.01 38.39 38.03-75.12 38.03-75.12zM768.11 424.55s25.94 60.83-9.3 83.69 9.3-83.69 9.3-83.69zM657.61 308.83l-21.42 31.88-21.46 31.84-16.86-34.48L581 303.59l38.29 2.64z" fill="#FFE6CA" p-id="6055"></path><path d="M529.51 478.79a73.82 41.03 0 1 0 147.64 0 73.82 41.03 0 1 0-147.64 0Z" fill="#FFE6CA" p-id="6056"></path><path d="M774.26 655.29c-12.7 180.67-151.18 56.84-331.81 44.14s-335.1 90.46-322.4-90.17c12.71-180.65 169.46-316.8 350.12-304.09 180.66 12.72 316.8 169.47 304.09 350.12z" fill="#F7B76B" p-id="6057"></path><path d="M785.59 630.54c-13.1 185.91-155.59 58.47-341.5 45.41s-344.83 93.1-331.73-92.81c13.09-185.91 174.41-326.01 360.32-312.92 185.9 13.09 326 174.42 312.91 360.32z" fill="#FCC275" p-id="6058"></path><path d="M709.16 731.2c-28.7 0-64.33-10.14-105.47-21.84-47.47-13.5-101.26-28.81-159.64-32.91-58.34-4.1-113.74 3.51-162.61 10.23-66.47 9.14-118.97 16.35-147.45-10.3-18.12-16.96-25.36-47.47-22.14-93.28 6.34-90.05 47.37-172.24 115.52-231.43 68.16-59.19 155.28-88.3 245.33-81.96 90.05 6.34 172.24 47.37 231.43 115.52 59.19 68.16 88.3 155.28 81.96 245.33-3.23 45.8-14.67 74.99-34.99 89.24-11.57 8.13-25.64 11.4-41.94 11.4z m-298.99-56.9c11.18 0 22.5 0.35 33.94 1.16 58.48 4.11 112.33 19.43 159.84 32.94 64.26 18.28 115.02 32.72 146.56 10.6 20.06-14.07 31.36-43.01 34.57-88.49l0.5 0.04-0.5-0.04c6.32-89.78-22.7-176.65-81.71-244.6S562.42 277.05 472.63 270.72C287.31 257.69 125.9 397.84 112.85 583.18c-3.21 45.49 3.93 75.74 21.82 92.48 28.13 26.33 80.43 19.14 146.63 10.04 39.35-5.41 82.92-11.4 128.87-11.4z" fill="#F7B76B" p-id="6059"></path><path d="M725.09 604.89c-10.86 151.68-126.93 47.73-278.62 37.05s-281.37 75.99-270.69-75.73c11.78-151.6 144.23-264.94 295.83-253.16 150.05 11.66 262.92 141.64 253.44 291.84h0.04z" fill="#FCC683" p-id="6060"></path><path d="M307.85 444.92s-55.04 36.73-38.03 75.12c17.01 38.39 38.03-75.12 38.03-75.12zM620.01 504.84s25.94 60.83-9.3 83.66 9.3-83.66 9.3-83.66z" fill="#FFE6CA" p-id="6061"></path><path d="M509.47 389.13L488.05 421l-21.42 31.85-16.9-34.49-16.86-34.48 38.32 2.6z" fill="#FFE6CA" p-id="6062"></path><path d="M381.37 559.08a73.82 41.03 0 1 0 147.64 0 73.82 41.03 0 1 0-147.64 0Z" fill="#FFE6CA" p-id="6063"></path></svg>